<svg xmlns="http://www.w3.org/2000/svg" xmlns:xlink="http://www.w3.org/1999/xlink" viewBox="0,0,255.99828,255.99828" width="50px" height="50px"><g fill="#ffffff" fill-rule="nonzero" stroke="none" stroke-width="1" stroke-linecap="butt" stroke-linejoin="miter" stroke-miterlimit="10" stroke-dasharray="" stroke-dashoffset="0" font-family="none" font-weight="none" font-size="none" text-anchor="none" style="mix-blend-mode: normal"><g transform="scale(5.12,5.12)"><path d="M25,4c-1.103,0 -2.08772,0.57797 -2.63672,1.54297l-20.95703,36.85352c-0.551,0.969 -0.54342,2.12389 0.01758,3.08789c0.552,0.949 1.53109,1.51563 2.62109,1.51563h41.91016c1.09,0 2.06909,-0.56663 2.62109,-1.51562c0.561,-0.964 0.56858,-2.11789 0.01758,-3.08789l-20.95703,-36.85352c-0.549,-0.965 -1.53372,-1.54297 -2.63672,-1.54297zM9.00195,5.98828c-0.38935,-0.00465 -0.74601,0.2171 -0.91409,0.56834c-0.16808,0.35124 -0.11701,0.7681 0.13088,1.06838l4,5c0.22326,0.27923 0.57854,0.41811 0.93197,0.36431c0.35343,-0.0538 0.65131,-0.29209 0.78137,-0.6251c0.13007,-0.33301 0.07256,-0.71011 -0.15085,-0.98921l-4,-5c-0.18716,-0.24106 -0.47413,-0.38347 -0.7793,-0.38672zM40.96875,5.99023c-0.29448,0.01149 -0.5689,0.15227 -0.75,0.38477l-4,5c-0.22341,0.2791 -0.28091,0.65621 -0.15085,0.98921c0.13007,0.33301 0.42794,0.5713 0.78137,0.6251c0.35343,0.0538 0.70872,-0.08508 0.93197,-0.36431l4,-5c0.25049,-0.30441 0.29879,-0.72757 0.12333,-1.08059c-0.17546,-0.35302 -0.54193,-0.57004 -0.93583,-0.55417zM2.96484,12.99414c-0.46199,0.01057 -0.85658,0.33628 -0.95451,0.78789c-0.09793,0.45161 0.12629,0.91151 0.5424,1.1125l6,3c0.49404,0.24702 1.09478,0.04677 1.3418,-0.44727c0.24702,-0.49404 0.04677,-1.09478 -0.44727,-1.3418l-6,-3c-0.14893,-0.07696 -0.31483,-0.11524 -0.48242,-0.11133zM47.00391,12.99414c-0.15705,0.00117 -0.31161,0.03931 -0.45117,0.11133l-6,3c-0.31965,0.15976 -0.52977,0.47792 -0.5512,0.83463c-0.02143,0.3567 0.14909,0.69774 0.44731,0.89462c0.29822,0.19688 0.67883,0.21968 0.99842,0.05981l6,-3c0.42109,-0.20367 0.64476,-0.67201 0.53849,-1.12754c-0.10627,-0.45553 -0.5141,-0.77654 -0.98185,-0.77285zM23.99805,18h2.00391c0.553,0 0.99805,0.448 0.99805,1v14c0,0.552 -0.448,1 -1,1h-2.00391c-0.553,0 -0.99609,-0.448 -0.99609,-1v-14c0,-0.552 0.44605,-1 0.99805,-1zM1,22c-0.36064,-0.0051 -0.69608,0.18438 -0.87789,0.49587c-0.18181,0.3115 -0.18181,0.69676 0,1.00825c0.18181,0.3115 0.51725,0.50097 0.87789,0.49587h6c0.36064,0.0051 0.69608,-0.18438 0.87789,-0.49587c0.18181,-0.3115 0.18181,-0.69676 0,-1.00825c-0.18181,-0.3115 -0.51725,-0.50097 -0.87789,-0.49587zM43,22c-0.36064,-0.0051 -0.69608,0.18438 -0.87789,0.49587c-0.18181,0.3115 -0.18181,0.69676 0,1.00825c0.18181,0.3115 0.51725,0.50097 0.87789,0.49587h6c0.36064,0.0051 0.69608,-0.18438 0.87789,-0.49587c0.18181,-0.3115 0.18181,-0.69676 0,-1.00825c-0.18181,-0.3115 -0.51725,-0.50097 -0.87789,-0.49587zM23.99805,37h2.00391c0.553,0 0.99805,0.448 0.99805,1v2c0,0.552 -0.44605,1 -0.99805,1h-2.00391c-0.552,0 -0.99805,-0.448 -0.99805,-1v-2c0,-0.552 0.44605,-1 0.99805,-1z"></path></g></g></svg>